#!OML:ASF E:\id_vita\Project 1\Capture day 1\Session 1\Female.ASF
:FULLY-SPECIFIED
:DEGREES
1281
root 21.7578 16.7409 -5.14327 -146.394 -5.68445 -182.739
lowerback -15.2384 -2.15268 -1.83576
upperback -7.23888 -3.6816 2.33855
thorax 1.11983 -2.21354 2.88612
lowerneck -2.91692 -0.0473499 -7.59256
upperneck -6.77032 0.484481 2.55353
head -1.66767 0.519717 2.11827
rclavicle 7.45443e-015 -1.98785e-015
rhumerus 78.604 -1.38047 -54.8527
rradius 33.7155
rwrist 25.1776
rhand -37.9042 29.6309
rfingers 7.12502
rthumb -10.9469 -0.0636949
lclavicle 7.45443e-015 -1.98785e-015
lhumerus 81.4474 2.90906 43.616
lradius 25.9025
lwrist -31.0409
lhand -41.9743 33.9273
lfingers 7.12502
lthumb -14.8704 63.3736
rfemur -43.605 3.21563 21.584
rtibia 22.0363
rfoot -8.32309 -7.56559
rtoes -8.42487
lfemur -16.1963 -9.34789 -19.8484
ltibia 21.1422
lfoot 0.896013 -6.21593
ltoes -7.649
1282
root 21.7574 16.7419 -5.14717 -146.336 -5.6086 -182.742
lowerback -15.2162 -2.13353 -1.85273
upperback -7.23149 -3.65311 2.35327
thorax 1.11582 -2.19814 2.91665
lowerneck -3.04408 0.025957 -7.40727
upperneck -6.72976 0.584796 2.36187
head -1.63437 0.569558 2.01981
rclavicle 2.98177e-015 -2.38542e-015
rhumerus 78.9722 -1.39765 -55.0332
rradius 33.2593
rwrist 25.2402
rhand -38.0792 30.1717
rfingers 7.12502
rthumb -11.1157 0.48606
lclavicle 2.98177e-015 -2.38542e-015
lhumerus 81.9087 3.03765 45.105
lradius 24.9903
lwrist -33.6531
lhand -42.2913 33.9718
lfingers 7.12502
lthumb -15.1758 63.3953
rfemur -43.6637 3.20439 21.5453
rtibia 22.0782
rfoot -8.51346 -7.26583
rtoes -7.13439
lfemur -16.1554 -9.46129 -19.8711
ltibia 21.0034
lfoot 0.939491 -5.99452
ltoes -7.55799
1283
root 21.7558 16.7423 -5.15037 -146.212 -5.54664 -182.771
lowerback -15.2172 -2.01094 -1.89662
upperback -7.2612 -3.48949 2.31427
thorax 1.07374 -2.11773 2.92878
lowerneck -3.08354 -0.101381 -7.47136
upperneck -6.79704 0.42737 2.38053
head -1.64148 0.497426 2.03842
rclavicle 3.926e-014 1.19271e-015
rhumerus 79.1497 -1.63088 -55.0831
rradius 32.8055
rwrist 25.4544
rhand -38.2757 30.5955
rfingers 7.12502
rthumb -11.3052 0.92014
lclavicle 3.926e-014 1.19271e-015
lhumerus 82.44 2.68723 44.9839
lradius 25.5431
lwrist -31.5864
lhand -40.3137 36.14
lfingers 7.12502
lthumb -13.2702 65.6975
rfemur -43.7988 3.03288 21.5957
rtibia 22.0975
rfoot -8.68234 -6.74754
rtoes -6.30527
lfemur -16.1962 -9.77239 -19.8808
ltibia 20.8888
lfoot 0.973207 -5.66421
ltoes -7.6256
1284
root 21.7555 16.7429 -5.15645 -146.126 -5.48873 -182.747
lowerback -15.173 -1.99604 -1.84917
upperback -7.29064 -3.48213 2.34102
thorax 1.01815 -2.11604 2.93436
lowerneck -3.49189 -0.336929 -8.64005
upperneck -6.48887 0.213359 3.59145
head -1.4742 0.393748 2.65849
rclavicle 3.57812e-014 4.77083e-015
rhumerus 79.5582 -1.50643 -55.4944
rradius 32.2799
rwrist 25.7327
rhand -38.2677 31.0762
rfingers 7.12502
rthumb -11.2974 1.4005
lclavicle 3.57812e-014 4.77083e-015
lhumerus 82.4446 2.90969 45.4228
lradius 25.2152
lwrist -32.996
lhand -40.9205 35.5281
lfingers 7.12502
lthumb -13.855 65.0466
rfemur -43.8964 2.81742 21.7668
rtibia 22.1161
rfoot -8.82094 -6.34423
rtoes -6.11387
lfemur -16.1986 -9.92267 -19.8515
ltibia 20.7741
lfoot 0.985485 -5.45083
ltoes -7.3386
1285
root 21.7576 16.7446 -5.16421 -146.108 -5.43056 -182.669
lowerback -15.1592 -2.08704 -1.66759
upperback -7.23543 -3.61814 2.35368
thorax 1.07034 -2.18466 2.82135
lowerneck -3.80968 -0.323493 -8.99275
upperneck -6.4331 0.29439 4.05266
head -1.41073 0.440631 2.88138
rclavicle 6.95746e-016 1.59028e-014
rhumerus 80.1989 -1.17788 -56.4096
rradius 31.6824
rwrist 26.1705
rhand -38.3536 31.578
rfingers 7.12502
rthumb -11.3803 1.90684
lclavicle 6.95746e-016 1.59028e-014
lhumerus 82.2618 3.45452 45.2852
lradius 24.9186
lwrist -33.6698
lhand -42.0192 34.032
lfingers 7.12502
lthumb -14.9136 63.4751
rfemur -43.907 2.79163 21.8837
rtibia 22.1297
rfoot -8.88309 -6.2489
rtoes -5.85702
lfemur -16.1427 -9.96595 -19.7857
ltibia 20.6781
lfoot 1.01087 -5.29469
ltoes -6.77031
1286
root 21.7597 16.7446 -5.1701 -146.09 -5.37933 -182.618
lowerback -15.1269 -2.12501 -1.66084
upperback -7.16888 -3.65904 2.41347
thorax 1.12981 -2.20016 2.87244
lowerneck -4.08959 -0.264638 -8.84803
upperneck -6.46627 0.404368 3.90007
head -1.37795 0.503309 2.80129
rclavicle 3.80673e-014 -7.55382e-015
rhumerus 80.631 -1.17678 -56.3606
rradius 31.336
rwrist 26.1376
rhand -38.5692 31.6153
rfingers 7.12502
rthumb -11.5882 1.95568
lclavicle 3.80673e-014 -7.55382e-015
lhumerus 82.3806 3.79814 45.7762
lradius 24.4974
lwrist -34.6235
lhand -43.0809 32.8423
lfingers 7.12502
lthumb -15.9363 62.2066
rfemur -43.8989 2.89851 21.86
rtibia 22.116
rfoot -8.94046 -6.27315
rtoes -5.08624
lfemur -16.1163 -9.95776 -19.7549
ltibia 20.6154
lfoot 1.00324 -5.23769
ltoes -6.16028
1287
root 21.7614 16.7426 -5.17494 -146.053 -5.29878 -182.603
lowerback -15.0988 -2.09419 -1.68505
upperback -7.1324 -3.61005 2.45572
thorax 1.15429 -2.17232 2.93843
lowerneck -4.31405 -0.170989 -8.32609
upperneck -6.46009 0.525208 3.39086
head -1.33741 0.563777 2.52985
rclavicle -4.76089e-014 -5.56597e-015
rhumerus 80.9175 -1.28133 -55.8869
rradius 31.085
rwrist 25.791
rhand -38.8066 31.3525
rfingers 7.12502
rthumb -11.8171 1.7059
lclavicle -4.76089e-014 -5.56597e-015
lhumerus 82.6216 3.87189 46.1064
lradius 24.463
lwrist -34.4444
lhand -42.2793 33.0479
lfingers 7.12502
lthumb -15.1642 62.4723
rfemur -43.9229 3.0228 21.7626
rtibia 22.1294
rfoot -9.00784 -6.25227
rtoes -3.95716
lfemur -16.0896 -9.83489 -19.7926
ltibia 20.5274
lfoot 0.955753 -5.27221
ltoes -5.88275
1288
root 21.7624 16.7385 -5.17892 -146 -5.22069 -182.546
lowerback -15.0411 -2.10803 -1.65278
upperback -7.13573 -3.63608 2.54023
thorax 1.12566 -2.18495 3.00736
lowerneck -4.50202 0.139282 -7.1308
upperneck -6.46377 0.885329 2.30655
head -1.30813 0.733867 1.94862
rclavicle 1.55052e-014 -3.97569e-015
rhumerus 81.3358 -1.14302 -55.8916
rradius 30.7292
rwrist 25.6128
rhand -39.1017 31.4467
rfingers 7.12502
rthumb -12.1017 1.81668
lclavicle 1.55052e-014 -3.97569e-015
lhumerus 82.6023 4.19241 46.647
lradius 24.0818
lwrist -35.7139
lhand -41.9462 32.5491
lfingers 7.12502
lthumb -14.8434 61.9974
rfemur -44.025 2.96101 21.8866
rtibia 22.2008
rfoot -9.0083 -6.15495
rtoes -5.11558
lfemur -16.0498 -10.0242 -19.7542
ltibia 20.4039
lfoot 0.950971 -4.99728
ltoes -6.07419
1289
root 21.7609 16.734 -5.18154 -145.998 -5.11873 -182.513
lowerback -14.9459 -2.17253 -1.65605
upperback -7.11119 -3.71893 2.64849
thorax 1.11393 -2.22254 3.11266
lowerneck -4.62662 0.136487 -7.16803
upperneck -6.62316 0.905745 2.16533
head -1.33788 0.758154 1.90909
rclavicle 4.58199e-014 4.21423e-014
rhumerus 81.8808 -0.873765 -56.3256
rradius 30.3248
rwrist 25.9401
rhand -39.4572 31.731
rfingers 7.12502
rthumb -12.4445 2.12148
lclavicle 4.58199e-014 4.21423e-014
lhumerus 82.5955 4.57631 47.1826
lradius 23.8096
lwrist -36.3147
lhand -41.8932 31.8501
lfingers 7.12502
lthumb -14.7923 61.3021
rfemur -44.0765 2.85711 22.0057
rtibia 22.279
rfoot -9.06563 -6.03444
rtoes -6.6471
lfemur -15.959 -10.3216 -19.7649
ltibia 20.3058
lfoot 0.927205 -4.61683
ltoes -6.50823
1290
root 21.7595 16.7304 -5.18287 -145.991 -4.98745 -182.553
lowerback -14.8679 -2.17864 -1.72872
upperback -7.08028 -3.71063 2.6668
thorax 1.10968 -2.21342 3.1768
lowerneck -4.70551 0.164694 -7.18952
upperneck -6.73341 0.960648 2.09906
head -1.362 0.794818 1.89146
rclavicle -2.48481e-015 1.19271e-014
rhumerus 82.3348 -0.772689 -56.8696
rradius 29.8748
rwrist 26.5766
rhand -39.824 31.8268
rfingers 7.12502
rthumb -12.7982 2.2391
lclavicle -2.48481e-015 1.19271e-014
lhumerus 82.8778 4.57951 47.4564
lradius 23.8935
lwrist -35.5903
lhand -40.9725 32.5351
lfingers 7.12502
lthumb -13.9051 62.0502
rfemur -44.1209 2.69726 22.0274
rtibia 22.3391
rfoot -9.27714 -5.70201
rtoes -6.58751
lfemur -15.9072 -10.1558 -19.9259
ltibia 20.2537
lfoot 0.812517 -4.61995
ltoes -6.92532
1291
root 21.7612 16.7279 -5.18402 -145.942 -4.93317 -182.542
lowerback -14.8116 -2.18526 -1.64914
upperback -7.05908 -3.72377 2.64172
thorax 1.09765 -2.21944 3.10538
lowerneck -4.81252 0.241261 -7.31152
upperneck -6.88052 1.09712 2.23642
head -1.40025 0.874061 1.95955
rclavicle -2.38542e-014 -1.66979e-014
rhumerus 82.7501 -0.743371 -57.3105
rradius 29.4488
rwrist 26.7769
rhand -39.8811 32.4982
rfingers 7.12502
rthumb -12.8531 2.91395
lclavicle -2.38542e-014 -1.66979e-014
lhumerus 83.1745 4.53842 47.4438
lradius 24.1852
lwrist -34.4878
lhand -39.6683 33.8664
lfingers 7.12502
lthumb -12.648 63.4634
rfemur -44.2341 2.41182 22.202
rtibia 22.4178
rfoot -9.5756 -5.20296
rtoes -5.8005
lfemur -15.9231 -9.99426 -19.9891
ltibia 20.1959
lfoot 0.751462 -4.59779
ltoes -7.24746
